<svg width="100" height="100" viewBox="0 0 24 24" fill="none" xmlns="http://www.w3.org/2000/svg">
    <path d="M12 2C10.8954 2 10 2.89543 10 4V20C10 21.1046 10.8954 22 12 22C13.1046 22 14 21.1046 14 20V4C14 2.89543 13.1046 2 12 2Z" fill="red"/>
    <path d="M7 6C5.89543 6 5 6.89543 5 8V16C5 17.1046 5.89543 18 7 18C8.10457 18 9 17.1046 9 16V8C9 6.89543 8.10457 6 7 6Z" fill="red"/>
    <path d="M17 6C15.8954 6 15 6.89543 15 8V16C15 17.1046 15.8954 18 17 18C18.1046 18 19 17.1046 19 16V8C19 6.89543 18.1046 6 17 6Z" fill="red"/>
</svg>
