<svg xmlns="http://www.w3.org/2000/svg" viewBox="0 0 64 64" width="64" height="64">
    <path fill="#FF0000" d="M32 2c-4.418 0-8 3.582-8 8v2c0 4.418 3.582 8 8 8s8-3.582 8-8V10c0-4.418-3.582-8-8-8zm-8 14c-4.418 0-8 3.582-8 8v2c0 4.418 3.582 8 8 8s8-3.582 8-8V24c0-4.418-3.582-8-8-8zm-8 14c-4.418 0-8 3.582-8 8v2c0 4.418 3.582 8 8 8s8-3.582 8-8V38c0-4.418-3.582-8-8-8zm-8 14c-4.418 0-8 3.582-8 8v2c0 4.418 3.582 8 8 8s8-3.582 8-8V52c0-4.418-3.582-8-8-8zm32-28c-4.418 0-8 3.582-8 8v2c0 4.418 3.582 8 8 8s8-3.582 8-8V24c0-4.418-3.582-8-8-8zm-8 14c-4.418 0-8 3.582-8 8v2c0 4.418 3.582 8 8 8s8-3.582 8-8V38c0-4.418-3.582-8-8-8zm-8 14c-4.418 0-8 3.582-8 8v2c0 4.418 3.582 8 8 8s8-3.582 8-8V52c0-4.418-3.582-8-8-8z"/>
</svg>
